# xmcd
#
# Track frame offsets:
#	150
#	38021
#	75464
#	125922
#
# Disc length: 2267 seconds
#
# Revision: 1
# Processed by: cddbd v1.5.1PL0 Copyright (c) Steve Scherf et al.
# Submitted via: CDmax 2.0
#
DISCID=2a08d904
DTITLE=obskure torture - necro rituals
DYEAR=2005
DGENRE=Country
TTITLE0=midnight funeral
TTITLE1=open the gates of hell
TTITLE2=summon the spirits of war
TTITLE3=shadows come alive
EXTD=
EXTT0=
EXTT1=
EXTT2=
EXTT3=
PLAYORDER=
